<svg width="20" height="20" viewBox="0 0 20 20" fill="none" xmlns="http://www.w3.org/2000/svg">
<path fill-rule="evenodd" clip-rule="evenodd" d="M16.8499 3.14644C17.0451 3.34171 17.0451 3.65829 16.8499 3.85355L14.8581 5.84536C15.0653 6.11527 15.2361 6.41212 15.3656 6.72838C15.5587 7.19985 15.656 7.70503 15.6519 8.21448C15.6477 8.72392 15.5422 9.22745 15.3416 9.69573C15.1414 10.1627 14.8506 10.5853 14.486 10.9391L12.748 12.677C12.7375 12.6899 12.7262 12.7024 12.7141 12.7144L10.9393 14.4898C10.5856 14.8544 10.163 15.1452 9.69597 15.3453C9.2277 15.546 8.72417 15.6515 8.21472 15.6556C7.70527 15.6598 7.2001 15.5625 6.72863 15.3694C6.41215 15.2398 6.11511 15.0689 5.84505 14.8615L3.85333 16.8534C3.65808 17.0487 3.34149 17.0487 3.14622 16.8535C2.95095 16.6582 2.95093 16.3416 3.14618 16.1463L5.13799 14.1543C4.93074 13.8844 4.75985 13.5875 4.63033 13.2711C4.43728 12.7997 4.33998 12.2945 4.34412 11.785C4.34826 11.2756 4.45374 10.7721 4.65442 10.3038C4.85455 9.8368 5.14536 9.41419 5.51 9.06044L7.25 7.31994C7.26054 7.30704 7.27176 7.29462 7.28364 7.28274L9.05665 5.50975C9.4104 5.14512 9.83301 4.8543 10.3 4.65417C10.7683 4.45349 11.2718 4.34801 11.7813 4.34388C12.2907 4.33974 12.7959 4.43703 13.2673 4.63008C13.5839 4.7597 13.881 4.93073 14.1511 5.13817L16.1428 3.14645C16.338 2.95119 16.6546 2.95118 16.8499 3.14644ZM12.8884 5.55551C12.5397 5.41274 12.1661 5.34079 11.7894 5.34384C11.4126 5.3469 11.0402 5.42491 10.6939 5.57333C10.3476 5.72174 10.0343 5.93759 9.77222 6.2083L9.76652 6.21409L8.3443 7.63629L12.3594 11.6514L13.7816 10.2292L13.7874 10.2235C14.0581 9.96145 14.274 9.64814 14.4224 9.30182C14.5708 8.95551 14.6488 8.58312 14.6519 8.20636C14.6549 7.8296 14.583 7.45599 14.4402 7.10731C14.2974 6.75863 14.0867 6.44186 13.8203 6.17544C13.5539 5.90902 13.2371 5.69828 12.8884 5.55551ZM7.63836 8.34578L6.21433 9.77031L6.20855 9.77601C5.93783 10.0381 5.72198 10.3514 5.57357 10.6977C5.42516 11.044 5.34715 11.4164 5.34409 11.7932C5.34103 12.1699 5.41298 12.5435 5.55575 12.8922C5.69852 13.2409 5.90926 13.5577 6.17568 13.8241C6.4421 14.0905 6.75888 14.3012 7.10756 14.444C7.45624 14.5868 7.82984 14.6587 8.2066 14.6557C8.58337 14.6526 8.95575 14.5746 9.30207 14.4262C9.64838 14.2778 9.96169 14.0619 10.2238 13.7912L10.2294 13.7854L11.6535 12.3609L7.63836 8.34578Z" fill="white"/>
</svg>
