<svg width="20" height="20" viewBox="0 0 20 20" fill="none" xmlns="http://www.w3.org/2000/svg">
<path fill-rule="evenodd" clip-rule="evenodd" d="M18.8536 1.85355C19.0488 1.65829 19.0488 1.34171 18.8536 1.14644C18.6583 0.951183 18.3417 0.951186 18.1465 1.14645L16.1548 3.13817C15.8847 2.93073 15.5876 2.7597 15.271 2.63008C14.7996 2.43703 14.2944 2.33974 13.7849 2.34388C13.2755 2.34801 12.772 2.45349 12.3037 2.65417C11.8367 2.8543 11.4141 3.14512 11.0603 3.50975L9.64645 4.92365C9.55268 5.01742 9.5 5.14459 9.5 5.2772C9.5 5.40981 9.55268 5.53699 9.64645 5.63076L14.3687 10.353C14.5639 10.5482 14.8805 10.5482 15.0758 10.353L16.4897 8.93909C16.8543 8.58533 17.1451 8.16272 17.3453 7.69573C17.5459 7.22745 17.6514 6.72392 17.6556 6.21448C17.6597 5.70503 17.5624 5.19985 17.3693 4.72838C17.2398 4.41212 17.069 4.11527 16.8618 3.84536L18.8536 1.85355ZM13.7931 3.34384C14.1698 3.34079 14.5434 3.41274 14.8921 3.55551C15.2408 3.69828 15.5576 3.90902 15.824 4.17544C16.0904 4.44186 16.3011 4.75863 16.4439 5.10731C16.5867 5.45599 16.6586 5.8296 16.6556 6.20636C16.6525 6.58312 16.5745 6.95551 16.4261 7.30182C16.2777 7.64814 16.0618 7.96145 15.7911 8.22351L15.7911 8.22346L15.7853 8.2292L14.7222 9.29232L10.7071 5.2772L11.7702 4.21409L11.7703 4.21414L11.7759 4.2083C12.038 3.93759 12.3513 3.72174 12.6976 3.57333C13.0439 3.42491 13.4163 3.3469 13.7931 3.34384ZM5.63124 9.64645C5.53748 9.55268 5.4103 9.5 5.27769 9.5C5.14508 9.5 5.0179 9.55268 4.92414 9.64645L3.51024 11.0603C3.14561 11.4141 2.85479 11.8367 2.65466 12.3037C2.45398 12.772 2.3485 13.2755 2.34437 13.7849C2.34023 14.2944 2.43752 14.7996 2.63057 15.271C2.7601 15.5874 2.93099 15.8843 3.13823 16.1542L1.14643 18.1463C0.951176 18.3415 0.951193 18.6581 1.14647 18.8534C1.34174 19.0486 1.65832 19.0486 1.85357 18.8533L3.8453 16.8614C4.11535 17.0688 4.4124 17.2398 4.72887 17.3693C5.20034 17.5624 5.70552 17.6597 6.21496 17.6556C6.72441 17.6514 7.22794 17.5459 7.69622 17.3453C8.16321 17.1451 8.58582 16.8543 8.93958 16.4897L10.3535 15.0758C10.5487 14.8805 10.5487 14.5639 10.3535 14.3687L9.76256 13.7778L11.2981 12.2422C11.4934 12.047 11.4934 11.7304 11.2981 11.5351C11.1028 11.3399 10.7863 11.3399 10.591 11.5351L9.05546 13.0707L6.92882 10.944L8.46461 9.40824C8.65987 9.21298 8.65987 8.8964 8.46461 8.70114C8.26935 8.50587 7.95277 8.50587 7.7575 8.70114L6.22172 10.2369L5.63124 9.64645ZM4.21458 11.7702L5.27769 10.7071L9.29281 14.7222L8.22969 15.7853L8.22965 15.7853L8.224 15.7911C7.96194 16.0618 7.64862 16.2777 7.30231 16.4261C6.956 16.5745 6.58361 16.6525 6.20685 16.6556C5.83008 16.6586 5.45648 16.5867 5.1078 16.4439C4.75912 16.3011 4.44235 16.0904 4.17593 15.824C3.9095 15.5576 3.69877 15.2408 3.556 14.8921C3.41323 14.5434 3.34127 14.1698 3.34433 13.7931C3.34739 13.4163 3.4254 13.0439 3.57381 12.6976C3.72223 12.3513 3.93808 12.038 4.20879 11.7759L4.20884 11.776L4.21458 11.7702Z" fill="white"/>
</svg>
