<svg width="20" height="21" viewBox="0 0 20 21" fill="none" xmlns="http://www.w3.org/2000/svg">
<path d="M9.994 3.00391C13.143 3.00391 15.7379 5.33879 15.9785 8.35931L15.9918 8.58152L15.9964 8.80605L15.9954 12.4019L16.9208 14.6241C16.9433 14.6782 16.961 14.7341 16.9737 14.7911L16.989 14.8772L16.9976 15.0085C16.9976 15.4565 16.7011 15.8426 16.2485 15.9716L16.1321 15.9984L15.9976 16.0085L12.496 16.0079L12.491 16.1692C12.4059 17.4729 11.3215 18.5039 9.99635 18.5039C8.67087 18.5039 7.58632 17.4724 7.50167 16.1683L7.49595 16.0079L3.99525 16.0085C3.90729 16.0085 3.81992 15.9969 3.73536 15.9741L3.6109 15.9317C3.20012 15.7606 2.95815 15.3432 3.00855 14.8796L3.02964 14.7522L3.07206 14.6241L3.99535 12.4049L3.99644 8.79671L4.00074 8.57214C4.12336 5.45506 6.76738 3.00391 9.994 3.00391ZM11.496 16.0079H8.49595L8.50331 16.1493C8.57185 16.862 9.13909 17.4289 9.85189 17.497L9.99635 17.5039C10.776 17.5039 11.4168 16.909 11.4895 16.1484L11.496 16.0079ZM9.994 4.00391C7.37145 4.00391 5.22351 5.92763 5.01349 8.38888L5.00027 8.60113L4.99635 8.80605V12.5039L4.95795 12.6961L3.99524 15.0085L15.953 15.0105L15.9982 15.0084L15.0348 12.6961L14.9964 12.5039L14.9965 8.81632L14.9924 8.61221C14.8872 6.03881 12.691 4.00391 9.994 4.00391Z" fill="#F0F0F0"/>
</svg>
