<svg width="20" height="20" viewBox="0 0 20 20" fill="none" xmlns="http://www.w3.org/2000/svg">
<path d="M6.69531 14.7891C6.51302 14.7891 6.33333 14.8229 6.15625 14.8906C5.97917 14.9583 5.80208 15.0312 5.625 15.1094C5.45312 15.1875 5.27865 15.2604 5.10156 15.3281C4.92448 15.3958 4.74479 15.4297 4.5625 15.4297C4.40625 15.4297 4.26302 15.3984 4.13281 15.3359C4.0026 15.2682 3.88542 15.1745 3.78125 15.0547C3.71354 14.9766 3.63281 14.8724 3.53906 14.7422C3.45052 14.612 3.35677 14.4688 3.25781 14.3125C3.15885 14.1562 3.0599 13.9922 2.96094 13.8203C2.86198 13.6432 2.77344 13.474 2.69531 13.3125C2.6224 13.1458 2.5625 12.9896 2.51562 12.8438C2.46875 12.6979 2.44531 12.5755 2.44531 12.4766C2.44531 12.2891 2.49219 12.1224 2.58594 11.9766C2.67969 11.8255 2.79427 11.6901 2.92969 11.5703C3.07031 11.4453 3.22135 11.3281 3.38281 11.2188C3.54948 11.1094 3.70052 10.9948 3.83594 10.875C3.97656 10.75 4.09375 10.6198 4.1875 10.4844C4.28125 10.3438 4.32812 10.1823 4.32812 10C4.32812 9.82292 4.28125 9.66406 4.1875 9.52344C4.09375 9.38281 3.97656 9.2526 3.83594 9.13281C3.69531 9.00781 3.54427 8.88802 3.38281 8.77344C3.22135 8.65885 3.07031 8.53906 2.92969 8.41406C2.78906 8.28385 2.67188 8.14583 2.57812 8C2.48438 7.85417 2.4375 7.6875 2.4375 7.5C2.4375 7.40625 2.46094 7.28646 2.50781 7.14062C2.5599 6.99479 2.625 6.83854 2.70312 6.67188C2.78125 6.50521 2.86979 6.33594 2.96875 6.16406C3.07292 5.98698 3.17448 5.82031 3.27344 5.66406C3.3776 5.5026 3.47656 5.35677 3.57031 5.22656C3.66406 5.09635 3.74479 4.99479 3.8125 4.92188C3.91667 4.80729 4.03385 4.71875 4.16406 4.65625C4.29948 4.59375 4.44271 4.5625 4.59375 4.5625C4.77604 4.5625 4.95312 4.59635 5.125 4.66406C5.29688 4.73177 5.46875 4.80729 5.64062 4.89062C5.8125 4.96875 5.98438 5.04167 6.15625 5.10938C6.33333 5.17708 6.51302 5.21094 6.69531 5.21094C6.92969 5.21094 7.13021 5.14062 7.29688 5C7.46875 4.85417 7.57552 4.66667 7.61719 4.4375C7.66406 4.18229 7.71094 3.92708 7.75781 3.67188C7.80469 3.41667 7.85156 3.16146 7.89844 2.90625C7.9401 2.6875 8.03385 2.50781 8.17969 2.36719C8.33073 2.22656 8.51562 2.13542 8.73438 2.09375C8.94271 2.05729 9.15365 2.03385 9.36719 2.02344C9.58073 2.00781 9.79167 2 10 2C10.2188 2 10.4375 2.00781 10.6562 2.02344C10.875 2.03906 11.0911 2.06771 11.3047 2.10938C11.5234 2.15104 11.7031 2.24219 11.8438 2.38281C11.9844 2.52344 12.0755 2.70312 12.1172 2.92188C12.1641 3.17708 12.2083 3.42969 12.25 3.67969C12.2917 3.92969 12.3359 4.18229 12.3828 4.4375C12.4245 4.66146 12.5312 4.84635 12.7031 4.99219C12.875 5.13802 13.0755 5.21094 13.3047 5.21094C13.487 5.21094 13.6667 5.17708 13.8438 5.10938C14.0208 5.04167 14.1953 4.96875 14.3672 4.89062C14.5443 4.8125 14.7214 4.73958 14.8984 4.67188C15.0755 4.60417 15.2552 4.57031 15.4375 4.57031C15.599 4.57031 15.7422 4.60417 15.8672 4.67188C15.9974 4.73438 16.1146 4.82552 16.2188 4.94531C16.2865 5.02344 16.3646 5.1276 16.4531 5.25781C16.5469 5.38802 16.6432 5.53125 16.7422 5.6875C16.8411 5.84375 16.9401 6.01042 17.0391 6.1875C17.138 6.35938 17.224 6.52865 17.2969 6.69531C17.375 6.85677 17.4375 7.01042 17.4844 7.15625C17.5312 7.30208 17.5547 7.42448 17.5547 7.52344C17.5547 7.71615 17.5078 7.88542 17.4141 8.03125C17.3203 8.17708 17.2031 8.3125 17.0625 8.4375C16.9271 8.55729 16.776 8.67188 16.6094 8.78125C16.4479 8.89062 16.2969 9.00781 16.1562 9.13281C16.0208 9.2526 15.9062 9.38281 15.8125 9.52344C15.7188 9.65885 15.6719 9.81771 15.6719 10C15.6719 10.1771 15.7188 10.3359 15.8125 10.4766C15.9062 10.6172 16.0234 10.75 16.1641 10.875C16.3047 10.9948 16.4557 11.112 16.6172 11.2266C16.7786 11.3411 16.9297 11.4635 17.0703 11.5938C17.2109 11.7188 17.3281 11.8542 17.4219 12C17.5156 12.1458 17.5625 12.3125 17.5625 12.5C17.5625 12.6042 17.5365 12.7292 17.4844 12.875C17.4375 13.0156 17.375 13.1693 17.2969 13.3359C17.2188 13.5026 17.1276 13.6719 17.0234 13.8438C16.9245 14.0156 16.8229 14.1797 16.7188 14.3359C16.6198 14.4922 16.5208 14.6354 16.4219 14.7656C16.3281 14.8958 16.2474 15 16.1797 15.0781C16.0755 15.1927 15.9583 15.2812 15.8281 15.3438C15.7031 15.4062 15.5651 15.4375 15.4141 15.4375C15.2422 15.4375 15.0651 15.4036 14.8828 15.3359C14.7057 15.2682 14.5286 15.1953 14.3516 15.1172C14.1745 15.0339 13.9974 14.9583 13.8203 14.8906C13.6432 14.8229 13.4714 14.7891 13.3047 14.7891C13.0755 14.7891 12.8984 14.8359 12.7734 14.9297C12.6484 15.0234 12.5521 15.1458 12.4844 15.2969C12.4167 15.4427 12.3672 15.6068 12.3359 15.7891C12.3099 15.9661 12.2812 16.138 12.25 16.3047C12.224 16.4401 12.1979 16.5729 12.1719 16.7031C12.151 16.8281 12.1276 16.9583 12.1016 17.0938C12.0599 17.3177 11.9661 17.5 11.8203 17.6406C11.6745 17.776 11.4896 17.8646 11.2656 17.9062C11.0573 17.9427 10.8464 17.9688 10.6328 17.9844C10.4245 17.9948 10.2135 18 10 18C9.78125 18 9.5625 17.9922 9.34375 17.9766C9.125 17.9609 8.90885 17.9323 8.69531 17.8906C8.47656 17.849 8.29688 17.7578 8.15625 17.6172C8.01562 17.4714 7.92448 17.2891 7.88281 17.0703C7.83594 16.8203 7.79167 16.5703 7.75 16.3203C7.70833 16.0651 7.66406 15.8125 7.61719 15.5625C7.57552 15.3385 7.46875 15.1536 7.29688 15.0078C7.125 14.862 6.92448 14.7891 6.69531 14.7891ZM11.1172 16.9219C11.138 16.8073 11.1615 16.6667 11.1875 16.5C11.2135 16.3281 11.2422 16.1536 11.2734 15.9766C11.3047 15.7995 11.3385 15.6302 11.375 15.4688C11.4115 15.3073 11.4479 15.1771 11.4844 15.0781C11.6302 14.6875 11.8646 14.375 12.1875 14.1406C12.5104 13.9062 12.8828 13.7891 13.3047 13.7891C13.4453 13.7891 13.6068 13.8151 13.7891 13.8672C13.9766 13.9141 14.1667 13.9714 14.3594 14.0391C14.5573 14.1068 14.7474 14.1771 14.9297 14.25C15.112 14.3229 15.2734 14.3854 15.4141 14.4375C15.6589 14.1458 15.875 13.8385 16.0625 13.5156C16.25 13.1875 16.4141 12.849 16.5547 12.5V12.4922L15.3594 11.4766C15.1406 11.2943 14.9714 11.0755 14.8516 10.8203C14.7318 10.5599 14.6719 10.2865 14.6719 10C14.6719 9.71354 14.7318 9.4401 14.8516 9.17969C14.9766 8.91927 15.1484 8.69792 15.3672 8.51562L16.5469 7.53125V7.52344C16.5469 7.51823 16.5365 7.48958 16.5156 7.4375C16.4948 7.38021 16.4818 7.34896 16.4766 7.34375C16.3516 7.02083 16.2005 6.71354 16.0234 6.42188C15.8516 6.125 15.6562 5.84115 15.4375 5.57031H15.4297L13.9609 6.10156C13.7526 6.17448 13.5391 6.21094 13.3203 6.21094C12.9661 6.21094 12.6406 6.125 12.3438 5.95312C12.0938 5.8125 11.8854 5.625 11.7188 5.39062C11.5573 5.15625 11.4505 4.89844 11.3984 4.61719L11.1328 3.09375C10.7578 3.03125 10.3802 3 10 3C9.8125 3 9.625 3.00781 9.4375 3.02344C9.25 3.03385 9.0651 3.05208 8.88281 3.07812C8.83594 3.33854 8.79167 3.59635 8.75 3.85156C8.70833 4.10677 8.65885 4.36198 8.60156 4.61719C8.55469 4.84635 8.47396 5.0599 8.35938 5.25781C8.24479 5.45052 8.10417 5.61719 7.9375 5.75781C7.77083 5.89844 7.58333 6.01042 7.375 6.09375C7.16667 6.17188 6.94271 6.21094 6.70312 6.21094C6.46875 6.21094 6.2474 6.17188 6.03906 6.09375H6.03125L4.59375 5.5625H4.58594C4.34635 5.85938 4.13021 6.16927 3.9375 6.49219C3.74479 6.8099 3.58073 7.14583 3.44531 7.5V7.50781L4.64062 8.52344C4.85938 8.70573 5.02865 8.92708 5.14844 9.1875C5.26823 9.44271 5.32812 9.71354 5.32812 10C5.32812 10.2865 5.26562 10.5599 5.14062 10.8203C5.02083 11.0807 4.85156 11.3021 4.63281 11.4844L3.45312 12.4688V12.4766C3.45312 12.4818 3.46354 12.513 3.48438 12.5703C3.50521 12.6224 3.51823 12.651 3.52344 12.6562C3.64844 12.9792 3.79688 13.2891 3.96875 13.5859C4.14583 13.8776 4.34375 14.1589 4.5625 14.4297H4.57031L6.03906 13.8984C6.2474 13.8255 6.46094 13.7891 6.67969 13.7891C7.03385 13.7891 7.35938 13.875 7.65625 14.0469C7.90625 14.1875 8.11198 14.375 8.27344 14.6094C8.4401 14.8438 8.54948 15.1016 8.60156 15.3828L8.86719 16.9062C9.24219 16.9688 9.61979 17 10 17C10.1875 17 10.375 16.9948 10.5625 16.9844C10.75 16.9688 10.9349 16.9479 11.1172 16.9219ZM7 10C7 9.58333 7.07812 9.19271 7.23438 8.82812C7.39062 8.46354 7.60417 8.14583 7.875 7.875C8.14583 7.60417 8.46354 7.39062 8.82812 7.23438C9.19271 7.07812 9.58333 7 10 7C10.4167 7 10.8073 7.07812 11.1719 7.23438C11.5365 7.39062 11.8542 7.60417 12.125 7.875C12.3958 8.14583 12.6094 8.46354 12.7656 8.82812C12.9219 9.19271 13 9.58333 13 10C13 10.4167 12.9219 10.8073 12.7656 11.1719C12.6094 11.5365 12.3958 11.8542 12.125 12.125C11.8542 12.3958 11.5365 12.6094 11.1719 12.7656C10.8073 12.9219 10.4167 13 10 13C9.58333 13 9.19271 12.9219 8.82812 12.7656C8.46354 12.6094 8.14583 12.3958 7.875 12.125C7.60417 11.8542 7.39062 11.5365 7.23438 11.1719C7.07812 10.8073 7 10.4167 7 10ZM12 10C12 9.72396 11.9479 9.46615 11.8438 9.22656C11.7396 8.98177 11.5964 8.76823 11.4141 8.58594C11.2318 8.40365 11.0182 8.26042 10.7734 8.15625C10.5339 8.05208 10.276 8 10 8C9.72396 8 9.46354 8.05208 9.21875 8.15625C8.97917 8.26042 8.76823 8.40365 8.58594 8.58594C8.40365 8.76823 8.26042 8.98177 8.15625 9.22656C8.05208 9.46615 8 9.72396 8 10C8 10.276 8.05208 10.5365 8.15625 10.7812C8.26042 11.0208 8.40365 11.2318 8.58594 11.4141C8.76823 11.5964 8.97917 11.7396 9.21875 11.8438C9.46354 11.9479 9.72396 12 10 12C10.276 12 10.5339 11.9479 10.7734 11.8438C11.0182 11.7396 11.2318 11.5964 11.4141 11.4141C11.5964 11.2318 11.7396 11.0208 11.8438 10.7812C11.9479 10.5365 12 10.276 12 10Z" fill="#D4D4D4"/>
</svg>
